<svg width="522" height="134" viewBox="0 0 522 134" fill="none" xmlns="http://www.w3.org/2000/svg">
<path d="M66.8924 133.785C49.0117 133.785 32.2352 126.839 19.5904 114.194C6.9457 101.55 0 84.7731 0 66.8924C0 49.0117 6.9457 32.2352 19.5904 19.5904C32.2352 6.9457 49.0117 0 66.8924 0C84.7731 0 101.55 6.9457 114.194 19.5904L102.084 31.7009C92.6806 22.2975 80.1783 17.1327 66.8924 17.1327C53.6065 17.1327 41.1043 22.2975 31.7009 31.7009C22.2975 41.1043 17.1327 53.6065 17.1327 66.8924C17.1327 80.1783 22.2975 92.6806 31.7009 102.084C51.1133 121.496 82.7073 121.496 102.084 102.084L114.194 114.194C101.55 126.804 84.7375 133.785 66.8924 133.785Z" fill="#243F93"/>
<path d="M66.928 98.6293C58.4506 98.6293 50.472 95.3168 44.4524 89.3328L56.5628 77.2222C59.3411 80.0005 63.0099 81.4966 66.928 81.4966C70.846 81.4966 74.5148 79.9649 77.2931 77.2222C80.0714 74.444 81.5674 70.7753 81.5674 66.8572C81.5674 62.9391 80.0358 59.2703 77.2931 56.4921C75.2984 54.4974 72.805 53.1438 70.0624 52.5383C65.147 51.4697 60.1247 52.9658 56.5628 56.4921L44.4524 44.3815C52.1461 36.6878 63.0811 33.4822 73.6955 35.7975C79.6439 37.0797 85.058 40.0716 89.4035 44.3815C95.3875 50.3655 98.7001 58.3443 98.7001 66.8572C98.7001 75.3345 95.3875 83.3132 89.4035 89.3328C83.3839 95.3524 75.4053 98.6293 66.928 98.6293Z" fill="#243F93"/>
<path d="M176.831 115.575C174.168 118.191 170.772 119.385 167.054 119.385C157.506 119.385 153.467 112.821 153.421 106.119C153.375 99.4178 157.736 92.5786 167.054 92.5786C170.542 92.5786 173.847 93.9097 176.463 96.5261L173.25 99.6473C171.552 97.9949 169.303 97.2146 167.054 97.2146C160.857 97.2146 158.149 101.851 158.195 106.119C158.241 110.388 160.674 114.84 167.054 114.84C169.303 114.84 171.827 113.922 173.526 112.224L176.831 115.575Z" fill="#243F93"/>
<path d="M167.1 119.981C156.68 119.981 152.962 112.545 152.916 106.165C152.916 102.218 154.339 98.4997 156.864 95.9293C159.388 93.3589 162.923 92.0277 167.1 92.0277C170.818 92.0277 174.214 93.4507 176.922 96.1129L177.335 96.526L173.296 100.428L172.883 100.06C171.414 98.5915 169.349 97.8112 167.1 97.8112C164.621 97.8112 162.601 98.5456 161.132 100.06C159.618 101.575 158.792 103.778 158.837 106.165C158.883 110.113 161.041 114.29 167.1 114.29C169.349 114.29 171.644 113.372 173.158 111.857L173.572 111.444L177.703 115.621L177.29 116.034C174.581 118.604 171.093 119.981 167.1 119.981ZM167.1 93.1752C163.244 93.1752 160.031 94.4145 157.69 96.7555C155.349 99.0964 154.018 102.539 154.064 106.165C154.11 111.995 157.506 118.834 167.1 118.834C170.588 118.834 173.663 117.686 176.05 115.575L173.572 113.05C171.873 114.519 169.44 115.437 167.145 115.437C160.26 115.437 157.782 110.434 157.736 106.165C157.69 103.503 158.7 100.978 160.398 99.2342C162.05 97.5358 164.437 96.6637 167.191 96.6637C169.532 96.6637 171.736 97.4441 173.388 98.867L175.821 96.526C173.25 94.3228 170.313 93.1752 167.1 93.1752Z" fill="#243F93"/>
<path d="M211.348 113.968H197.899L195.696 118.834H190.463L201.984 93.1296H207.263L218.784 118.834H213.505L211.348 113.968ZM204.646 98.4999L199.873 109.424H209.42L204.646 98.4999Z" fill="#243F93"/>
<path d="M219.702 119.385H213.138L210.981 114.519H198.266L196.063 119.385H189.545L201.571 92.533H207.584L219.702 119.385ZM213.918 118.237H217.958L206.941 93.6805H202.397L191.381 118.237H195.374L197.578 113.372H211.761L213.918 118.237ZM210.292 110.021H199.001L204.646 97.0771L210.292 110.021ZM200.745 108.874H208.548L204.646 99.9229L200.745 108.874Z" fill="#243F93"/>
<path d="M257.708 100.198L249.354 111.352H248.39L240.22 100.152V118.834H235.354V93.1294H240.954L248.987 104.191L257.019 93.1294H262.573V118.834H257.708V100.198Z" fill="#243F93"/>
<path d="M263.124 119.43H257.111V101.942L249.583 111.949H248.069L247.885 111.719L240.725 101.942V119.43H234.712V92.5785H241.138L248.895 103.227L256.652 92.5785H263.078V119.43H263.124ZM258.259 118.283H261.977V93.726H257.295L248.987 105.155L240.679 93.726H235.951V118.283H239.669V98.408L248.711 110.801H249.079L258.305 98.4997V118.283H258.259Z" fill="#243F93"/>
<path d="M293.923 111.26H286.671V118.834H281.806V93.1295C285.845 93.1295 289.884 93.0836 293.923 93.0836C306.454 93.0836 306.5 111.26 293.923 111.26ZM286.625 106.808H293.878C300.074 106.808 300.028 97.7196 293.878 97.7196H286.625V106.808Z" fill="#243F93"/>
<path d="M287.222 119.385H281.209V92.533H281.76C283.779 92.533 285.799 92.533 287.819 92.533C289.838 92.533 291.858 92.533 293.878 92.533C300.441 92.533 303.884 97.3984 303.884 102.218C303.884 104.742 303.012 107.083 301.359 108.828C299.523 110.801 296.953 111.857 293.878 111.857H287.176V119.385H287.222ZM282.357 118.237H286.074V110.664H293.923C296.677 110.664 298.973 109.746 300.579 108.001C302.002 106.487 302.782 104.375 302.782 102.172C302.782 98.087 300.028 93.6345 293.923 93.6345C291.904 93.6345 289.884 93.6345 287.865 93.6345C286.029 93.6345 284.193 93.6345 282.357 93.6345V118.237ZM293.923 107.405H286.074V97.1688H293.923C297.366 97.1688 299.156 99.7394 299.156 102.31C299.156 103.641 298.697 104.88 297.871 105.798C296.861 106.854 295.53 107.405 293.923 107.405ZM287.222 106.257H293.923C295.209 106.257 296.264 105.844 296.999 105.018C297.641 104.284 298.009 103.32 298.009 102.264C298.009 100.336 296.723 98.2706 293.923 98.2706H287.222V106.257Z" fill="#243F93"/>
<path d="M343.864 93.1751V107.909C343.864 115.529 339.182 119.385 332.756 119.385C326.605 119.385 321.326 115.621 321.326 107.909V93.1751H326.146V107.909C326.146 112.545 328.808 114.978 332.801 114.978C336.795 114.978 339.09 112.316 339.09 107.909V93.1751H343.864Z" fill="#243F93"/>
<path d="M332.71 119.935C325.411 119.935 320.729 115.208 320.729 107.864V92.5785H326.697V107.864C326.697 111.995 328.9 114.381 332.756 114.381C336.382 114.381 338.447 111.995 338.447 107.864V92.5785H344.414V107.864C344.414 115.299 339.962 119.935 332.71 119.935ZM321.877 93.726V107.864C321.877 115.896 327.706 118.788 332.71 118.788C339.319 118.788 343.267 114.703 343.267 107.864V93.726H339.595V107.864C339.595 112.637 337.024 115.529 332.756 115.529C328.257 115.529 325.549 112.683 325.549 107.864V93.726H321.877Z" fill="#243F93"/>
<path d="M379.115 99.3257C378.243 97.8568 375.81 96.4798 373.01 96.4798C369.43 96.4798 367.686 97.9947 367.686 99.8766C367.686 102.126 370.348 102.722 373.423 103.09C378.794 103.732 383.751 105.155 383.751 111.26C383.751 116.997 378.702 119.43 372.964 119.43C367.732 119.43 363.692 117.824 361.765 113.096L365.804 110.984C366.951 113.83 369.935 115.07 373.01 115.07C376.04 115.07 378.932 114.014 378.932 111.214C378.932 108.781 376.407 107.817 372.964 107.45C367.732 106.808 362.866 105.431 362.866 99.647C362.866 94.3684 368.099 92.2111 372.827 92.1652C376.82 92.1652 380.951 93.3128 382.925 97.2602L379.115 99.3257Z" fill="#243F93"/>
<path d="M373.01 120.073C366.951 120.073 363.096 117.87 361.306 113.418L361.122 112.913L366.171 110.296L366.401 110.893C367.319 113.234 369.843 114.611 373.102 114.611C374.341 114.611 378.427 114.382 378.427 111.352C378.427 110.205 377.876 108.644 373.01 108.139C367.778 107.496 362.407 106.028 362.407 99.785C362.407 94.2769 367.686 91.7523 372.919 91.7064C378.105 91.7064 381.777 93.5885 383.522 97.1228L383.751 97.6277L378.932 100.106L378.656 99.6473C377.922 98.408 375.673 97.0769 373.056 97.0769C370.119 97.0769 368.329 98.1785 368.329 99.9227C368.329 101.392 369.797 102.126 373.561 102.585C379.207 103.274 384.44 104.834 384.44 111.352C384.394 117.732 378.518 120.073 373.01 120.073ZM362.545 113.418C364.243 117.135 367.594 118.88 373.01 118.88C377.968 118.88 383.246 116.86 383.246 111.26C383.246 105.936 379.299 104.375 373.377 103.641C371.22 103.365 367.135 102.906 367.135 99.8309C367.135 97.9031 368.696 95.8376 373.01 95.8376C375.81 95.8376 378.151 97.1228 379.299 98.5457L382.19 97.0769C380.538 94.231 377.417 92.8081 372.873 92.8081C368.191 92.854 363.509 95.0113 363.509 99.7391C363.509 104.788 367.319 106.257 373.102 106.946C374.709 107.129 379.574 107.634 379.574 111.306C379.574 114.014 377.095 115.713 373.102 115.713C369.614 115.713 366.86 114.29 365.62 111.857L362.545 113.418Z" fill="#243F93"/>
<path d="M200.432 60.1127C195.267 65.2062 188.571 67.5927 181.305 67.5927C162.64 67.5927 154.733 54.7342 154.662 41.6621C154.59 28.5187 163.139 15.1616 181.305 15.1616C188.144 15.1616 194.591 17.7618 199.755 22.8553L193.451 28.9461C190.138 25.7048 185.686 24.2088 181.305 24.2088C169.159 24.2088 163.923 33.256 163.994 41.6621C164.065 49.9969 168.874 58.6879 181.305 58.6879C185.686 58.6879 190.637 56.907 193.949 53.5945L200.432 60.1127Z" fill="#243F93"/>
<path d="M181.34 69.3735C160.468 69.3735 152.988 54.4492 152.916 41.662C152.881 33.7902 155.766 26.3102 160.859 21.1811C165.953 16.0519 173.041 13.3448 181.34 13.3448C188.785 13.3448 195.624 16.1944 201.073 21.5373L202.355 22.8195L193.486 31.4037L192.24 30.1927C189.461 27.45 185.579 25.954 181.34 25.954C176.674 25.954 172.899 27.3787 170.156 30.157C167.342 32.9709 165.775 37.174 165.81 41.6263C165.882 48.9995 169.978 56.8712 181.34 56.8712C185.472 56.8712 189.96 55.0904 192.738 52.2765L194.021 50.9941L202.997 60.077L201.714 61.3236C196.407 66.6308 189.355 69.3735 181.34 69.3735ZM181.34 16.9424C174.003 16.9424 167.805 19.2932 163.388 23.71C158.936 28.1624 156.443 34.7163 156.478 41.662C156.549 53.345 163.103 65.8473 181.34 65.8473C187.752 65.8473 193.451 63.8526 197.903 60.077L193.914 56.0521C190.494 58.7947 185.828 60.4688 181.34 60.4688C167.378 60.4688 162.32 50.353 162.248 41.662C162.213 36.2479 164.172 31.1544 167.627 27.6637C171.046 24.2443 175.784 22.4278 181.34 22.4278C185.899 22.4278 190.103 23.8881 193.415 26.5239L197.191 22.8552C192.667 18.9727 187.217 16.9424 181.34 16.9424Z" fill="#243F93"/>
<path d="M269.533 41.5909C269.39 54.5918 261.412 67.5927 243.745 67.5927C226.078 67.5927 217.885 54.8767 217.885 41.6621C217.885 28.4474 226.362 15.1616 243.745 15.1616C261.055 15.1616 269.675 28.4475 269.533 41.5909ZM227.217 41.8046C227.431 50.0682 231.883 58.9016 243.745 58.9016C255.606 58.9016 260.058 49.9969 260.2 41.7333C260.343 33.256 255.606 23.7814 243.745 23.7814C231.883 23.7814 227.004 33.3273 227.217 41.8046Z" fill="#243F93"/>
<path d="M243.745 69.3735C224.653 69.3735 216.104 55.4464 216.104 41.6619C216.104 28.0198 224.76 13.3804 243.745 13.3804C251.652 13.3804 258.42 16.0519 263.406 21.0741C268.535 26.2389 271.421 33.7545 271.314 41.6262C271.171 55.4464 262.587 69.3735 243.745 69.3735ZM243.745 16.9423C227.182 16.9423 219.666 29.7652 219.666 41.6619C219.666 52.8106 225.971 65.8116 243.745 65.8116C261.269 65.8116 267.645 52.7394 267.752 41.555C267.823 34.6094 265.33 28.0555 260.842 23.5319C256.603 19.222 250.655 16.9423 243.745 16.9423ZM243.745 60.6824C230.601 60.6824 225.65 50.531 225.436 41.84C225.294 36.1053 227.253 30.7269 230.815 27.0581C234.056 23.7455 238.544 21.9646 243.745 21.9646C248.909 21.9646 253.362 23.6743 256.567 26.9513C260.094 30.5488 262.088 35.9272 261.982 41.7331C261.839 50.4954 256.959 60.6824 243.745 60.6824ZM228.998 41.7688C229.105 45.3663 230.423 57.1205 243.745 57.1205C254.359 57.1205 258.277 49.1419 258.42 41.6976C258.491 36.8534 256.888 32.401 254.038 29.4803C251.474 26.8801 248.019 25.5622 243.745 25.5622C239.435 25.5622 235.944 26.9157 233.344 29.5871C230.459 32.5435 228.891 36.9602 228.998 41.7688Z" fill="#243F93"/>
<path d="M335.107 40.8784C335.321 53.5944 327.556 66.4528 309.96 66.4528C303.798 66.4528 296.389 66.4528 290.192 66.4528V16.1588C296.354 16.1588 303.762 16.1588 309.96 16.1588C327.235 16.1588 334.893 28.4474 335.107 40.8784ZM299.631 57.3343H309.96C321.394 57.3343 325.917 48.9996 325.704 40.8072C325.49 32.971 320.895 25.1349 309.96 25.1349H299.631V57.3343Z" fill="#243F93"/>
<path d="M309.96 68.2338H288.411V14.3779H309.96C328.233 14.3779 336.674 27.6638 336.888 40.8428C337.031 48.6077 334.324 55.874 329.479 60.7894C324.706 65.6692 317.939 68.2338 309.96 68.2338ZM292.008 64.6719H309.996C317.084 64.6719 322.819 62.5348 326.95 58.2962C331.118 54.0575 333.469 47.7173 333.362 40.9141C333.184 30.3353 326.95 17.9398 309.996 17.9398H292.008V64.6719ZM309.96 59.1154H297.85V23.354H309.96C322.534 23.354 327.271 32.7217 327.485 40.7359C327.627 46.1144 325.918 50.923 322.676 54.2356C319.613 57.4413 315.196 59.1154 309.96 59.1154ZM301.412 55.5535H309.96C314.27 55.5535 317.69 54.2712 320.112 51.7779C322.676 49.142 324.03 45.2596 323.887 40.8428C323.709 34.1108 319.933 26.9159 309.925 26.9159H301.376V55.5535H301.412Z" fill="#243F93"/>
<path d="M393.237 66.4528H355.588C355.588 49.7119 355.588 32.8997 355.588 16.1588H393.237V25.3486H364.992V36.9247H392.24V45.7582H364.992V57.1206H393.237V66.4528Z" fill="#243F93"/>
<path d="M395.018 68.2338H353.807V14.3779H395.018V27.1296H366.773V35.1439H394.021V47.5392H366.773V55.3397H395.018V68.2338ZM357.369 64.6719H391.457V58.9016H363.211V43.9773H390.459V38.7057H363.211V23.5677H391.457V17.9398H357.369V64.6719Z" fill="#243F93"/>
<path d="M459.524 66.4527H448.233L433.594 49.6405H424.475V66.4527H415.001V16.0875C422.979 16.0875 430.958 16.1587 438.937 16.1587C450.798 16.23 457.031 24.1373 457.031 32.8284C457.031 39.7385 453.861 46.6842 444.315 48.6432L459.56 65.8116V66.4527H459.524ZM424.475 24.9923V41.092H438.901C444.921 41.092 447.521 37.0671 447.521 33.0422C447.521 29.0172 444.85 24.9923 438.901 24.9923H424.475Z" fill="#243F93"/>
<path d="M461.305 68.2338H447.45L432.81 51.4216H426.292V68.2338H413.255V14.3067H415.036C419.026 14.3067 423.015 14.3067 427.004 14.3424C430.994 14.3424 434.983 14.3779 438.972 14.3779C452.65 14.4491 458.848 23.995 458.848 32.8285C458.848 41.1277 454.787 47.0762 447.592 49.6051L461.377 65.1349V68.2338H461.305ZM449.052 64.6719H456.141L440.896 47.5036L443.923 46.898C453.754 44.9034 455.215 37.2453 455.215 32.8285C455.215 25.4554 450.157 18.011 438.865 17.9398C434.876 17.9398 430.887 17.9399 426.897 17.9043C423.514 17.9043 420.13 17.8686 416.71 17.8686V64.6719H422.623V47.8597H434.413L449.052 64.6719ZM438.937 42.8731H422.73V23.2114H438.937C446.096 23.2114 449.337 28.305 449.337 33.0423C449.337 37.9221 446.096 42.8731 438.937 42.8731ZM426.256 39.3112H438.901C443.959 39.3112 445.74 36.0699 445.74 33.0423C445.74 30.0147 443.959 26.7733 438.901 26.7733H426.256V39.3112Z" fill="#243F93"/>
<path d="M511.029 28.3049C509.32 25.4198 504.547 22.7127 499.097 22.7127C492.045 22.7127 488.696 25.6691 488.696 29.4091C488.696 33.7903 493.861 35.0013 499.916 35.7493C510.424 37.0316 520.183 39.7742 520.183 51.7778C520.183 62.9978 510.281 67.8064 499.061 67.8064C488.803 67.8064 480.896 64.6363 477.156 55.4466L485.063 51.3504C487.307 56.8714 493.113 59.329 499.204 59.329C505.152 59.329 510.78 57.2632 510.78 51.7778C510.78 47.0405 505.829 45.0815 499.133 44.3691C488.874 43.1581 479.364 40.4154 479.364 29.1242C479.364 18.7591 489.551 14.5561 498.848 14.4492C506.684 14.4492 514.805 16.6576 518.616 24.4225L511.029 28.3049Z" fill="#243F93"/>
<path d="M499.026 69.5161C486.844 69.5161 479.15 65.0994 475.446 56.0522L474.841 54.5561L485.918 48.8215L486.666 50.638C488.411 54.9479 493.077 57.4769 499.168 57.4769C501.448 57.4769 508.964 57.0495 508.964 51.7066C508.964 50.5668 508.963 47.1474 498.919 46.0788C488.34 44.8321 477.583 41.8402 477.583 29.0886C477.583 17.833 488.233 12.7395 498.812 12.6326C509.284 12.6326 516.657 16.4438 520.183 23.6032L520.967 25.1705L510.388 30.6202L509.533 29.1954C508.144 26.8802 504.048 24.4582 499.133 24.4582C493.719 24.4582 490.513 26.2746 490.513 29.3735C490.513 31.8312 493.22 33.1136 500.166 33.9328C507.254 34.8233 522 36.6398 522 51.7066C521.929 62.7129 513.167 69.5161 499.026 69.5161ZM479.435 56.1947C482.748 62.8554 489.053 65.9542 499.026 65.9542C503.549 65.9542 518.367 64.9213 518.367 51.7066C518.367 41.769 511.208 38.8838 499.667 37.4591C495.215 36.9248 486.88 35.9274 486.88 29.3735C486.88 25.2773 490.085 20.8963 499.061 20.8963C504.476 20.8963 509.106 23.2827 511.493 26.0254L516.052 23.6745C512.882 18.7235 507.076 16.1945 498.741 16.1945C490.584 16.2658 481.038 19.6852 481.038 29.0886C481.038 38.4564 488.305 41.2703 499.24 42.5525C502.481 42.9087 512.454 43.9773 512.454 51.7066C512.454 57.4769 507.325 61.0388 499.097 61.0388C492.294 61.0388 486.88 58.3318 484.137 53.7013L479.435 56.1947Z" fill="#243F93"/>
</svg>
